<svg xmlns="http://www.w3.org/2000/svg" viewBox="0 0 512 512" role="img" aria-labelledby="title desc">
  <title id="title">Finals Blackboard</title>
  <desc id="desc">A black and orange app icon for the finals sprint planner.</desc>
  <defs>
    <linearGradient id="bg" x1="76" y1="52" x2="450" y2="472" gradientUnits="userSpaceOnUse">
      <stop offset="0" stop-color="#191919"/>
      <stop offset="0.54" stop-color="#080808"/>
      <stop offset="1" stop-color="#000000"/>
    </linearGradient>
    <linearGradient id="orange" x1="136" y1="118" x2="392" y2="392" gradientUnits="userSpaceOnUse">
      <stop offset="0" stop-color="#ffb020"/>
      <stop offset="1" stop-color="#ff7a00"/>
    </linearGradient>
  </defs>
  <rect width="512" height="512" rx="112" fill="url(#bg)"/>
  <path d="M88 126c0-21 17-38 38-38h260c21 0 38 17 38 38v260c0 21-17 38-38 38H126c-21 0-38-17-38-38V126Z" fill="#0d0d0d" stroke="#ff8a00" stroke-opacity=".46" stroke-width="8"/>
  <path d="M151 169h210M151 241h210M151 313h132" stroke="#343434" stroke-width="18" stroke-linecap="round"/>
  <path d="M155 354h202" stroke="url(#orange)" stroke-width="28" stroke-linecap="round"/>
  <path d="M158 157h92c26 0 47 21 47 47v84c0 26-21 47-47 47h-92V157Z" fill="url(#orange)"/>
  <path d="M195 206h48M195 246h60M195 286h38" stroke="#120800" stroke-width="18" stroke-linecap="round"/>
  <circle cx="367" cy="145" r="23" fill="#ffb020"/>
</svg>
